<?xml version="1.0" standalone="no"?>
<svg xmlns="http://www.w3.org/2000/svg" width="388.4193940033784" height="267.0717377533784" viewBox="0 0 388.4193940033784 267.0717377533784"><path fill="#000000" fill-rule="nonzero" d="M0 23.11L0 0L5.10 0L5.10 24.45Q5.10 26.02 5.25 27.05Q5.41 28.09 5.75 28.70Q6.09 29.32 6.63 29.58Q7.17 29.84 7.91 29.84L7.91 29.84Q8.65 29.84 9.21 29.58Q9.77 29.32 10.13 28.70Q10.49 28.09 10.67 27.05Q10.86 26.02 10.86 24.45L10.86 24.45L10.86 0L15.90 0L15.90 23.11Q15.90 25.55 15.51 27.29Q15.12 29.02 14.47 30.20Q13.83 31.37 13.00 32.05Q12.17 32.73 11.28 33.10Q10.39 33.46 9.51 33.55Q8.63 33.65 7.91 33.65L7.91 33.65Q7.19 33.65 6.32 33.55Q5.45 33.46 4.57 33.10Q3.69 32.73 2.87 32.05Q2.05 31.37 1.41 30.20Q0.76 29.02 0.38 27.29Q0 25.57 0 23.11L0 23.11Z" transform="translate(0 0) scale(6.69)"></path><path fill="#000000" fill-rule="nonzero" d="M0 33.65L0 0.29L5.06 0.29Q6.02 0.29 7.16 0.38Q8.30 0.47 9.44 0.79Q10.59 1.11 11.65 1.78Q12.71 2.44 13.54 3.58Q14.36 4.73 14.85 6.45Q15.35 8.16 15.35 10.63L15.35 10.63L15.35 11.80Q15.35 14.47 14.89 16.38Q14.43 18.28 13.67 19.58Q12.91 20.88 11.90 21.66Q10.90 22.44 9.81 22.84Q8.73 23.24 7.63 23.37Q6.52 23.50 5.55 23.50L5.55 23.50L5.06 23.50L5.06 33.65L0 33.65ZM5.06 19.79L5.31 19.79Q6.68 19.79 7.62 19.38Q8.55 18.98 9.11 18.13Q9.67 17.29 9.91 15.95Q10.16 14.61 10.16 12.73L10.16 12.73L10.16 9.73Q10.16 8.24 9.94 7.16Q9.73 6.07 9.17 5.37Q8.61 4.67 7.68 4.33Q6.74 3.98 5.31 3.98L5.31 3.98L5.06 3.98L5.06 19.79ZM19.18 33.65L19.18 0.29L24.67 0.29Q25.61 0.29 26.73 0.37Q27.85 0.45 28.97 0.75Q30.10 1.05 31.14 1.66Q32.19 2.27 33.00 3.32Q33.81 4.38 34.30 5.97Q34.79 7.56 34.79 9.82L34.79 9.82L34.79 10.66Q34.79 14.47 33.69 16.87Q32.60 19.26 30.47 20.31L30.47 20.31L35.82 33.65L30.47 33.65L26.04 21.17L24.14 21.17L24.14 33.65L19.18 33.65ZM24.14 17.52L24.90 17.52Q26.23 17.52 27.15 17.23Q28.07 16.93 28.63 16.24Q29.20 15.55 29.45 14.40Q29.71 13.26 29.71 11.58L29.71 11.58L29.71 8.95Q29.71 7.66 29.47 6.72Q29.24 5.78 28.68 5.18Q28.13 4.57 27.21 4.28Q26.29 3.98 24.90 3.98L24.90 3.98L24.14 3.98L24.14 17.52ZM47.03 33.95L47.03 33.95Q46.23 33.95 45.29 33.82Q44.36 33.69 43.44 33.28Q42.52 32.87 41.67 32.12Q40.82 31.37 40.17 30.14Q39.51 28.91 39.12 27.10Q38.73 25.29 38.73 22.79L38.73 22.79L38.73 10.98Q38.73 8.46 39.13 6.67Q39.53 4.88 40.20 3.66Q40.86 2.44 41.71 1.72Q42.56 1.00 43.49 0.62Q44.41 0.23 45.33 0.12Q46.25 0 47.03 0L47.03 0Q47.77 0 48.68 0.11Q49.59 0.21 50.50 0.58Q51.41 0.94 52.27 1.65Q53.13 2.36 53.79 3.58Q54.45 4.80 54.85 6.61Q55.25 8.42 55.25 10.98L55.25 10.98L55.25 22.79Q55.25 25.27 54.84 27.06Q54.43 28.85 53.77 30.09Q53.11 31.33 52.24 32.08Q51.37 32.83 50.46 33.25Q49.55 33.67 48.65 33.81Q47.75 33.95 47.03 33.95ZM47.03 30.14L47.03 30.14Q47.77 30.14 48.33 29.88Q48.89 29.63 49.25 29.00Q49.61 28.38 49.79 27.35Q49.98 26.33 49.98 24.77L49.98 24.77L49.98 9.59Q49.98 7.99 49.79 6.91Q49.61 5.84 49.25 5.19Q48.89 4.53 48.33 4.26Q47.77 3.98 47.03 3.98L47.03 3.98Q46.27 3.98 45.70 4.26Q45.14 4.53 44.77 5.19Q44.39 5.84 44.21 6.91Q44.02 7.99 44.02 9.59L44.02 9.59L44.02 24.77Q44.02 26.33 44.21 27.35Q44.39 28.38 44.77 29.00Q45.14 29.63 45.70 29.88Q46.27 30.14 47.03 30.14ZM64.04 33.96L64.04 33.96Q62.17 33.96 60.90 33.38Q59.63 32.79 58.86 31.79Q58.09 30.78 57.75 29.43Q57.42 28.09 57.42 26.58L57.42 26.58Q57.42 25.53 57.56 24.21Q57.70 22.89 57.97 21.56L57.97 21.56L62.01 21.56L61.95 25.63Q61.95 26.91 62.07 27.78Q62.19 28.65 62.43 29.17Q62.68 29.69 63.06 29.91Q63.44 30.14 63.98 30.14L63.98 30.14Q64.43 30.14 64.79 29.96Q65.16 29.79 65.41 29.35Q65.66 28.91 65.80 28.15Q65.94 27.40 65.94 26.27L65.94 26.27L66.00 0.29L71.05 0.29L71.05 25.57Q71.05 28.14 70.47 29.79Q69.88 31.43 68.90 32.35Q67.91 33.28 66.65 33.62Q65.39 33.96 64.04 33.96ZM76.64 33.65L76.64 0.29L89.00 0.29L89.00 4.28L81.70 4.28L81.70 14.26L87.34 14.26L87.34 18.24L81.70 18.24L81.70 29.67L89.20 29.67L89.20 33.65L76.64 33.65ZM95.94 33.65L95.94 4.28L90.57 4.28L90.57 0.29L106.35 0.29L106.35 4.28L101.00 4.28L101.00 33.65L95.94 33.65Z" transform="translate(0 233.107) scale(1)"></path><g fill="#eb7617" color="#eb7617" transform="translate(121.348 2.842) scale(5.6823774)"><svg width="47.0" height="46.0" x="0.0" y="0.0" viewBox="0 0 47 46"><path fill="currentColor" fill-rule="nonzero" d="M44.78 1.64c-3.27-3.27-12.02-.08-21.36 7.22-9.34-7.3-18.09-10.5-21.36-7.22C-1.22 4.91 1.98 13.66 9.27 23 1.98 32.34-1.22 41.09 2.06 44.37c3.27 3.27 12.02.08 21.36-7.22 9.34 7.29 18.09 10.49 21.36 7.22 3.27-3.27.08-12.02-7.22-21.36 7.3-9.35 10.5-18.1 7.22-21.37zm-3.69 2.48c.69 0 .98.14 1.02.18.19.19.68 2.33-1.68 7.26-1.28 2.67-3.1 5.54-5.31 8.44-1.3-1.51-2.7-3.02-4.2-4.51-1.49-1.49-3-2.89-4.51-4.19 6.23-4.72 11.69-7.18 14.68-7.18zM32.71 23a80.65 80.65 0 0 1-9.29 9.29 82.406 82.406 0 0 1-4.84-4.45 80.65 80.65 0 0 1-4.45-4.83 79.34 79.34 0 0 1 4.45-4.84 84.12 84.12 0 0 1 4.83-4.46 79.34 79.34 0 0 1 9.3 9.29zM4.54 5.33c0-.69.14-.98.18-1.02.19-.19 2.33-.68 7.26 1.69 2.67 1.28 5.54 3.1 8.44 5.31a87.109 87.109 0 0 0-4.51 4.2c-1.49 1.49-2.89 3-4.19 4.51C7 13.78 4.54 8.32 4.54 5.33zm1.21 36.55c-.69 0-.99-.15-1.02-.18-.19-.19-.68-2.33 1.69-7.26 1.28-2.67 3.1-5.54 5.31-8.44 1.31 1.51 2.71 3.02 4.2 4.51 1.49 1.49 3 2.89 4.51 4.19-6.24 4.73-11.7 7.18-14.69 7.18zm36.55-1.21c0 .69-.15.98-.18 1.02-.19.19-2.33.68-7.26-1.68-2.67-1.28-5.54-3.1-8.44-5.31 1.51-1.3 3.02-2.7 4.51-4.2 1.49-1.49 2.89-3 4.2-4.51 4.71 6.23 7.17 11.69 7.17 14.68z"></path></svg></g></svg>